<svg width="65" height="65" viewBox="0 0 65 65" fill="none" xmlns="http://www.w3.org/2000/svg">
<path d="M64.5 32.5C64.5 50.1731 50.1731 64.5 32.5 64.5C14.8269 64.5 0.5 50.1731 0.5 32.5C0.5 14.8269 14.8269 0.5 32.5 0.5C50.1731 0.5 64.5 14.8269 64.5 32.5Z" fill="white" stroke="#583518"/>
<g filter="url(#filter0_d_803_45)">
<path d="M40.1296 19C39.6301 21 40.6291 26.5 42.1295 28.5C43.63 30.5 44.1298 32.5 44.1299 34C44.13 35.5 43.6301 36.5 42.1297 40C40.6294 43.5 40.6299 43.5 40.1296 45.5" stroke="#583518" stroke-linecap="round"/>
<path d="M26.0002 19C26.4998 21 25.5008 27 24.0004 29C22.4999 31 22.0001 33 22 34.5C21.9999 36 22.4998 37 24.0002 40.5C25.5005 44 25.5 43.5 26.0002 45.5" stroke="#583518" stroke-linecap="round"/>
<path d="M33 39V47" stroke="#583518" stroke-linecap="round"/>
<path d="M33 39C31 35.6667 26.5 39.6667 22 35" stroke="#583518" stroke-linecap="round"/>
<path d="M33 39C35 35.6667 39.5 39.6667 44 35" stroke="#583518" stroke-linecap="round"/>
<path d="M25 28C31.5 31 36 31 41.5 28" stroke="#583518" stroke-linecap="round"/>
<path d="M33 27.5V26.5" stroke="#583518" stroke-linecap="round"/>
<path d="M50 24H44.5717C44.5837 23.9789 43.9883 24.0207 44.0002 24M45.7142 22C45.6202 22 44.8895 22.4522 44.0002 24M44.0002 24C44.6571 25.2501 45.5237 25.8333 45.7142 26" stroke="#583518" stroke-linecap="round"/>
<path d="M16 24H21.4283C21.4163 23.9789 22.0117 24.0207 21.9998 24M20.2858 22C20.3798 22 21.1105 22.4522 21.9998 24M21.9998 24C21.3429 25.2501 20.4763 25.8333 20.2858 26" stroke="#583518" stroke-linecap="round"/>
</g>
<defs>
<filter id="filter0_d_803_45" x="11.5" y="18.5" width="43" height="37" filterUnits="userSpaceOnUse" color-interpolation-filters="sRGB">
<feFlood flood-opacity="0" result="BackgroundImageFix"/>
<feColorMatrix in="SourceAlpha" type="matrix" values="0 0 0 0 0 0 0 0 0 0 0 0 0 0 0 0 0 0 127 0" result="hardAlpha"/>
<feOffset dy="4"/>
<feGaussianBlur stdDeviation="2"/>
<feComposite in2="hardAlpha" operator="out"/>
<feColorMatrix type="matrix" values="0 0 0 0 0 0 0 0 0 0 0 0 0 0 0 0 0 0 0.25 0"/>
<feBlend mode="normal" in2="BackgroundImageFix" result="effect1_dropShadow_803_45"/>
<feBlend mode="normal" in="SourceGraphic" in2="effect1_dropShadow_803_45" result="shape"/>
</filter>
</defs>
</svg>
